# File created by Blade
# Date/Time:  Tue Apr 07 20:45:29 2015
#---------------------------------------------------------
:version 1.10
:name HOM
:units
  mass 1.0
  length 1.000000
  angle deg
:documentation
     Acclaim Skeleton File
:root
   axis xyz
   order TX TY TZ RX RY RZ
   position 0.000000 0.000000 0.000000
   orientation 0 0 0
:bonedata
   begin
      id 1
      name Spine_dum
      direction 0.000000 1.000000 0.000000
      length 4.885285
      axis 0.0 0.0 0.0 xyz
   end
   begin
      id 2
      name LeftUpLeg_dum
      direction 1.000000 0.000000 0.000000
      length 2.672193
      axis 0.0 0.0 0.0 xyz
   end
   begin
      id 3
      name RightUpLeg_dum
      direction -1.000000 0.000000 0.000000
      length 2.672193
      axis 0.0 0.0 0.0 xyz
   end
   begin
      id 4
      name Spine
      direction 0.000000 1.000000 0.000000
      length 0.000000
      axis 0.0 0.0 0.0 xyz
      dof rx ry rz
   end
   begin
      id 5
      name Spine_dum1
      direction 0.000000 1.000000 0.000000
      length 16.494159
      axis 0.0 0.0 0.0 xyz
   end
   begin
      id 6
      name Spine_dum2
      direction 0.000000 1.000000 0.000000
      length 10.663448
      axis 0.0 0.0 0.0 xyz
   end
   begin
      id 7
      name Spine_dum3
      direction 0.000000 1.000000 0.000000
      length 10.663448
      axis 0.0 0.0 0.0 xyz
   end
   begin
      id 8
      name Head
      direction 0.000000 1.000000 0.000000
      length 4.527550
      axis 0.0 0.0 0.0 xyz
      dof rx ry rz
   end
   begin
      id 9
      name LeftShoulder
      direction 1.000000 0.000000 0.000000
      length 7.531907
      axis 0.0 0.0 -90.0 xyz
      dof rx ry rz
   end
   begin
      id 10
      name LeftArm
      direction 1.000000 0.000000 0.000000
      length 10.229199
      axis 0.0 0.0 -90.0 xyz
      dof rx ry rz
   end
   begin
      id 11
      name LeftForeArm
      direction 1.000000 0.000000 0.000000
      length 8.673495
      axis 0.0 0.0 -90.0 xyz
      dof ry rz rx
   end
   begin
      id 12
      name LeftHand
      direction 0.000000 0.000000 0.000000
      length 0.000000
      axis 0.0 0.0 -90.0 xyz
      dof rx ry rz
   end
   begin
      id 13
      name LeftHand_dum1
      direction 0.000000 0.000000 0.000000
      length 0.000000
      axis 0.0 0.0 -90.0 xyz
   end
   begin
      id 14
      name LeftHand_dum2
      direction 1.000000 0.000000 0.000000
      length 3.937000
      axis 0.0 0.0 -90.0 xyz
   end
   begin
      id 15
      name LeftHandThumb1
      direction 0.000000 0.000000 1.000000
      length 3.937000
      axis 0.0 0.0 -90.0 xyz
      dof rx rz ry
   end
   begin
      id 16
      name RightShoulder
      direction -1.000000 0.000000 0.000000
      length 7.531907
      axis 0.0 0.0 90.0 xyz
      dof rx ry rz
   end
   begin
      id 17
      name RightArm
      direction -1.000000 0.000000 0.000000
      length 10.229199
      axis 0.0 0.0 90.0 xyz
      dof rx ry rz
   end
   begin
      id 18
      name RightForeArm
      direction -1.000000 0.000000 0.000000
      length 8.673495
      axis 0.0 0.0 90.0 xyz
      dof ry rz rx
   end
   begin
      id 19
      name RightHand
      direction 0.000000 0.000000 0.000000
      length 0.000000
      axis 0.0 0.0 90.0 xyz
      dof rx ry rz
   end
   begin
      id 20
      name RightHand_dum1
      direction 0.000000 0.000000 0.000000
      length 0.000000
      axis 0.0 0.0 90.0 xyz
   end
   begin
      id 21
      name RightHand_dum2
      direction -1.000000 0.000000 0.000000
      length 3.937000
      axis 0.0 0.0 90.0 xyz
   end
   begin
      id 22
      name RightHandThumb1
      direction 0.000000 0.000000 1.000000
      length 3.937000
      axis 0.0 0.0 90.0 xyz
      dof rx rz ry
   end
   begin
      id 23
      name LeftUpLeg
      direction 0.000000 -1.000000 0.000000
      length 16.263388
      axis 0.0 0.0 0.0 xyz
      dof rx ry rz
   end
   begin
      id 24
      name LeftLeg
      direction 0.000000 -1.000000 0.000000
      length 14.328163
      axis 0.0 0.0 0.0 xyz
      dof rx ry rz
   end
   begin
      id 25
      name LeftFoot
      direction 0.000000 -0.258819 0.965926
      length 5.031290
      axis 15.0 0.0 0.0 xyz
      dof rx ry rz
   end
   begin
      id 26
      name LeftToeBase
      direction 0.000000 0.000000 1.000000
      length 2.952750
      axis 0.0 0.0 0.0 xyz
      dof rx ry rz
   end
   begin
      id 27
      name RightUpLeg
      direction 0.000000 -1.000000 0.000000
      length 16.263388
      axis 0.0 0.0 0.0 xyz
      dof rx ry rz
   end
   begin
      id 28
      name RightLeg
      direction 0.000000 -1.000000 0.000000
      length 14.328163
      axis 0.0 0.0 0.0 xyz
      dof rx ry rz
   end
   begin
      id 29
      name RightFoot
      direction 0.000000 -0.258819 0.965926
      length 5.031290
      axis 15.0 0.0 0.0 xyz
      dof rx ry rz
   end
   begin
      id 30
      name RightToeBase
      direction 0.000000 0.000000 1.000000
      length 2.952750
      axis 0.0 0.0 0.0 xyz
      dof rx ry rz
   end
:hierarchy
   begin
      root Spine_dum LeftUpLeg_dum RightUpLeg_dum
      Spine_dum Spine
      LeftUpLeg_dum LeftUpLeg
      RightUpLeg_dum RightUpLeg
      Spine Spine_dum1 Spine_dum2 Spine_dum3
      Spine_dum1 Head
      Spine_dum2 LeftShoulder
      Spine_dum3 RightShoulder
      LeftShoulder LeftArm
      LeftArm LeftForeArm
      LeftForeArm LeftHand
      LeftHand LeftHand_dum1 LeftHand_dum2
      LeftHand_dum1 LeftHandThumb1
      RightShoulder RightArm
      RightArm RightForeArm
      RightForeArm RightHand
      RightHand RightHand_dum1 RightHand_dum2
      RightHand_dum1 RightHandThumb1
      LeftUpLeg LeftLeg
      LeftLeg LeftFoot
      LeftFoot LeftToeBase
      RightUpLeg RightLeg
      RightLeg RightFoot
      RightFoot RightToeBase
   end

# File created by Blade
# Date/Time:  Tue Apr 07 20:45:22 2015
# Frame Rate: 120.000 fps
#------------------------------------------------------
:FULLY-SPECIFIED
:DEGREES
101
root 1.744406 32.970237 -4.006110 10.370928 0.515796 -2.768142
Spine -8.512109 -5.029187 1.011145
Head 15.139863 -3.374020 3.179814
LeftShoulder -19.566617 44.995907 10.837679
LeftArm 63.078044 -30.378663 -80.776622
LeftForeArm 9.136042 -0.000000 7.758341
LeftHand 3.934777 0.000000 8.657523
LeftHandThumb1 -26.253704 0.000000 33.147579
RightShoulder -4.839493 -2.584482 -21.328015
RightArm 15.721111 11.657009 62.931787
RightForeArm -4.678534 -0.000000 10.727821
RightHand 5.452582 0.000000 -5.359025
RightHandThumb1 -24.326973 -0.000000 -32.862282
LeftUpLeg -7.239832 -3.018830 1.046295
LeftLeg -2.316719 -0.000000 0.000000
LeftFoot -4.933705 10.329856 -15.932213
LeftToeBase -9.233202 -0.000000 0.000000
RightUpLeg -8.609055 -2.428089 2.822075
RightLeg -1.430457 -0.000000 0.000000
RightFoot -5.229410 -4.513587 12.715288
RightToeBase 1.422762 -0.000000 -0.000000
102
root 1.758930 32.972081 -4.038379 10.482584 0.388495 -2.845667
Spine -8.524775 -4.933787 1.010679
Head 15.228092 -3.400336 3.301252
LeftShoulder -19.488884 45.032133 10.774282
LeftArm 62.873258 -29.602935 -81.239273
LeftForeArm 8.850947 0.000000 7.784503
LeftHand 3.912972 -0.000000 8.544390
LeftHandThumb1 -26.253704 0.000000 33.147579
RightShoulder -4.756273 -2.551845 -21.079579
RightArm 15.811811 11.466461 63.650321
RightForeArm -4.534733 -0.000000 10.684587
RightHand 5.673294 -0.000000 -5.642666
RightHandThumb1 -24.326973 -0.000000 -32.862282
LeftUpLeg -7.441030 -3.019169 1.114154
LeftLeg -2.209481 -0.000000 0.000000
LeftFoot -5.085168 10.357685 -16.032676
LeftToeBase -8.999268 -0.000000 0.000000
RightUpLeg -8.848888 -2.468181 2.885302
RightLeg -1.311674 -0.000000 0.000000
RightFoot -5.111111 -4.331817 12.655517
RightToeBase 1.343255 -0.000000 -0.000000
103
root 1.773894 32.974787 -4.067661 10.569490 0.233631 -2.898388
Spine -8.528549 -4.766010 0.961608
Head 15.347532 -3.503521 3.437688
LeftShoulder -19.456504 45.275168 10.618206
LeftArm 62.954786 -28.834970 -81.725756
LeftForeArm 8.624251 0.000000 7.739640
LeftHand 3.889663 -0.000000 8.260366
LeftHandThumb1 -26.253704 0.000000 33.147579
RightShoulder -4.691947 -2.494665 -20.859166
RightArm 15.801615 11.287068 64.391287
RightForeArm -4.372578 -0.000000 10.697884
RightHand 5.715747 -0.000000 -5.683584
RightHandThumb1 -24.326973 -0.000000 -32.862282
LeftUpLeg -7.606776 -2.993529 1.140777
LeftLeg -2.112916 -0.000000 0.000000
LeftFoot -5.053161 10.434098 -15.871069
LeftToeBase -9.378746 -0.000000 0.000000
RightUpLeg -9.013973 -2.353881 2.891765
RightLeg -1.282276 -0.000000 0.000000
RightFoot -4.989171 -4.279562 12.649926
RightToeBase 1.309162 -0.000000 -0.000000
104
root 1.789398 32.977013 -4.096598 10.647970 0.115089 -2.940565
Spine -8.514205 -4.654444 0.913416
Head 15.443413 -3.579719 3.544390
LeftShoulder -19.426020 45.467424 10.479391
LeftArm 62.964433 -28.078722 -82.136469
LeftForeArm 8.600406 -0.000000 7.603462
LeftHand 4.018189 -0.000000 8.024325
LeftHandThumb1 -26.253704 0.000000 33.147579
RightShoulder -4.639255 -2.562177 -20.640544
RightArm 15.927944 11.119506 65.156001
RightForeArm -4.165602 -0.000000 10.720214
RightHand 5.715887 -0.000000 -5.764537
RightHandThumb1 -24.326973 -0.000000 -32.862282
LeftUpLeg -7.775142 -2.994830 1.159709
LeftLeg -1.999939 -0.000000 0.000000
LeftFoot -5.095152 10.450022 -15.784489
LeftToeBase -9.211856 -0.000000 0.000000
RightUpLeg -9.185776 -2.308828 2.900350
RightLeg -1.223828 -0.000000 0.000000
RightFoot -4.868824 -4.201362 12.613326
RightToeBase 1.241954 -0.000000 -0.000000
105
root 1.808849 32.979608 -4.124021 10.699070 0.034396 -2.992407
Spine -8.462526 -4.586958 0.916941
Head 15.517320 -3.605356 3.591331
LeftShoulder -19.365513 45.498032 10.351624
LeftArm 62.769692 -27.295582 -82.347498
LeftForeArm 8.539116 -0.000000 7.467319
LeftHand 4.012083 0.000000 7.588035
LeftHandThumb1 -26.253704 0.000000 33.147579
RightShoulder -4.592258 -2.642077 -20.470752
RightArm 16.086314 10.935496 65.927799
RightForeArm -3.862942 -0.000000 10.751259
RightHand 5.762138 0.000000 -5.560448
RightHandThumb1 -24.326973 -0.000000 -32.862282
LeftUpLeg -7.919679 -3.059074 1.188951
LeftLeg -1.877516 -0.000000 0.000000
LeftFoot -5.150413 10.550899 -15.705285
LeftToeBase -9.284812 -0.000000 0.000000
RightUpLeg -9.378919 -2.482318 2.959499
RightLeg -1.057457 -0.000000 0.000000
RightFoot -4.757773 -3.996725 12.433515
RightToeBase 1.085768 -0.000000 -0.000000
106
root 1.825674 32.981633 -4.150889 10.745255 -0.048843 -3.044171
Spine -8.402736 -4.516741 0.908610
Head 15.578582 -3.670761 3.636479
LeftShoulder -19.332143 45.500095 10.223098
LeftArm 62.569129 -26.472912 -82.451965
LeftForeArm 8.367107 -0.000000 7.254598
LeftHand 3.974665 -0.000000 7.403406
LeftHandThumb1 -26.253704 0.000000 33.147579
RightShoulder -4.546048 -2.771116 -20.292328
RightArm 16.281194 10.712580 66.669758
RightForeArm -3.596052 -0.000000 10.756315
RightHand 5.820458 -0.000000 -5.520902
RightHandThumb1 -24.326973 -0.000000 -32.862282
LeftUpLeg -8.064310 -3.081885 1.219189
LeftLeg -1.735276 -0.000000 0.000000
LeftFoot -5.229073 10.601311 -15.668148
LeftToeBase -9.401556 -0.000000 0.000000
RightUpLeg -9.512567 -2.491367 2.988195
RightLeg -0.995151 -0.000000 0.000000
RightFoot -4.647205 -3.918166 12.380379
RightToeBase 1.056599 -0.000000 -0.000000
107
root 1.842330 32.983932 -4.177272 10.752883 -0.159010 -3.089650
Spine -8.298673 -4.454648 0.882156
Head 15.649583 -3.706337 3.709266
LeftShoulder -19.326138 45.500067 10.086325
LeftArm 62.386538 -25.687836 -82.593401
LeftForeArm 8.215312 0.000000 7.025332
LeftHand 3.986016 0.000000 7.245326
LeftHandThumb1 -26.253704 0.000000 33.147579
RightShoulder -4.428360 -2.809736 -20.118520
RightArm 16.364826 10.437647 67.342736
RightForeArm -3.435019 -0.000000 10.793338
RightHand 5.743383 -0.000000 -5.083056
RightHandThumb1 -24.326973 -0.000000 -32.862282
LeftUpLeg -8.182181 -3.064274 1.234863
LeftLeg -1.554396 -0.000000 0.000000
LeftFoot -5.372844 10.614435 -15.717333
LeftToeBase -9.256696 -0.000000 0.000000
RightUpLeg -9.596812 -2.413876 2.994611
RightLeg -0.952297 -0.000000 0.000000
RightFoot -4.561696 -3.906199 12.392151
RightToeBase 1.015786 -0.000000 -0.000000
108
root 1.860204 32.985894 -4.198689 10.754910 -0.265949 -3.137072
Spine -8.204357 -4.385053 0.859872
Head 15.739867 -3.784160 3.753039
LeftShoulder -19.256739 45.566812 10.014493
LeftArm 62.222918 -24.942013 -82.880428
LeftForeArm 8.051185 0.000000 6.880591
LeftHand 4.024588 0.000000 7.166397
LeftHandThumb1 -26.253704 0.000000 33.147579
RightShoulder -4.309077 -2.860755 -19.917251
RightArm 16.448618 10.164084 67.945042
RightForeArm -3.146868 0.000000 10.822838
RightHand 5.629246 -0.000000 -5.081572
RightHandThumb1 -24.326973 -0.000000 -32.862282
LeftUpLeg -8.293239 -2.981803 1.236866
LeftLeg -1.360351 -0.000000 0.000000
LeftFoot -5.520435 10.585625 -15.736595
LeftToeBase -9.145903 -0.000000 0.000000
RightUpLeg -9.678530 -2.388608 3.012002
RightLeg -0.881101 -0.000000 0.000000
RightFoot -4.508110 -3.857698 12.371023
RightToeBase 1.053583 -0.000000 -0.000000
109
root 1.877503 32.987411 -4.217306 10.737584 -0.373504 -3.197077
Spine -8.095644 -4.325737 0.848415
Head 15.847005 -3.801859 3.826630
LeftShoulder -19.190118 45.525500 9.976262
LeftArm 61.950744 -24.194767 -83.167642
LeftForeArm 7.987904 -0.000000 6.763572
LeftHand 3.974537 -0.000000 7.402548
LeftHandThumb1 -26.253704 0.000000 33.147579
RightShoulder -4.185029 -2.942245 -19.720183
RightArm 16.574294 9.763612 68.497367
RightForeArm -2.860701 -0.000000 10.778526
RightHand 5.696099 -0.000000 -4.520750
RightHandThumb1 -24.326973 -0.000000 -32.862282
LeftUpLeg -8.387593 -2.872666 1.250331
LeftLeg -1.150483 -0.000000 0.000000
LeftFoot -5.644799 10.487778 -15.748921
LeftToeBase -9.133648 -0.000000 0.000000
RightUpLeg -9.727325 -2.349740 3.043438
RightLeg -0.826893 -0.000000 0.000000
RightFoot -4.436257 -3.833954 12.300902
RightToeBase 1.019073 -0.000000 -0.000000
110
root 1.894387 32.989122 -4.236109 10.697205 -0.467189 -3.263788
Spine -7.960771 -4.283878 0.853499
Head 15.972130 -3.840872 3.862553
LeftShoulder -19.067796 45.427315 9.997860
LeftArm 61.603737 -23.492676 -83.540644
LeftForeArm 7.859438 -0.000000 6.697728
LeftHand 3.959379 -0.000000 7.661960
LeftHandThumb1 -26.253704 0.000000 33.147579
RightShoulder -4.051606 -3.042203 -19.512257
RightArm 16.732824 9.417663 69.036669
RightForeArm -2.465332 -0.000000 10.761059
RightHand 5.686323 -0.000000 -4.480571
RightHandThumb1 -24.326973 -0.000000 -32.862282
LeftUpLeg -8.479274 -2.764810 1.267414
LeftLeg -0.902840 -0.000000 0.000000
LeftFoot -5.781107 10.416866 -15.718192
LeftToeBase -9.109041 -0.000000 0.000000
RightUpLeg -9.716660 -2.235660 3.058749
RightLeg -0.844371 -0.000000 0.000000
RightFoot -4.334244 -3.845146 12.333161
RightToeBase 1.049479 -0.000000 -0.000000
111
root 1.916744 32.990761 -4.253572 10.660146 -0.594142 -3.277031
Spine -7.833762 -4.285354 0.827178
Head 16.095704 -3.799470 3.845225
LeftShoulder -18.966409 45.265325 10.006210
LeftArm 61.126733 -22.870479 -83.969072
LeftForeArm 7.679238 -0.000000 6.728298
LeftHand 4.008623 -0.000000 7.884680
LeftHandThumb1 -26.253704 0.000000 33.147579
RightShoulder -3.858100 -3.141916 -19.339982
RightArm 16.936040 9.248121 69.645146
RightForeArm -2.306574 0.000000 10.692795
RightHand 5.481538 -0.000000 -4.750814
RightHandThumb1 -24.326973 -0.000000 -32.862282
LeftUpLeg -8.561850 -2.650931 1.216298
LeftLeg -0.671328 -0.000000 0.000000
LeftFoot -5.865017 10.417112 -15.646846
LeftToeBase -9.482779 -0.000000 0.000000
RightUpLeg -9.863016 -2.457247 3.088336
RightLeg -0.548927 -0.000000 0.000000
RightFoot -4.322358 -3.574757 12.092172
RightToeBase 0.939375 -0.000000 -0.000000
112
root 1.935338 32.991630 -4.272132 10.615391 -0.692780 -3.316991
Spine -7.684517 -4.207093 0.790828
Head 16.191565 -3.896262 3.891542
LeftShoulder -18.858982 45.453777 9.975360
LeftArm 61.066620 -22.298434 -84.620521
LeftForeArm 7.483221 -0.000000 6.822568
LeftHand 3.981813 -0.000000 8.368530
LeftHandThumb1 -26.253704 0.000000 33.147579
RightShoulder -3.789023 -3.273670 -19.136956
RightArm 17.119035 8.979842 70.217414
RightForeArm -2.098058 -0.000000 10.674757
RightHand 5.504906 -0.000000 -4.399591
RightHandThumb1 -24.326973 -0.000000 -32.862282
LeftUpLeg -8.664539 -2.520955 1.197773
LeftLeg -0.396870 -0.000000 0.000000
LeftFoot -5.965254 10.339277 -15.574263
LeftToeBase -9.608513 -0.000000 0.000000
RightUpLeg -9.894512 -2.417547 3.093270
RightLeg -0.475693 -0.000000 0.000000
RightFoot -4.251688 -3.549599 12.018255
RightToeBase 0.849609 -0.000000 -0.000000
